<?xml version="1.0" encoding="utf-8"?>
<!-- Generator: Adobe Illustrator 25.0.0, SVG Export Plug-In . SVG Version: 6.00 Build 0)  -->
<svg version="1.1" id="Layer_1" xmlns="http://www.w3.org/2000/svg" xmlns:xlink="http://www.w3.org/1999/xlink" x="0px" y="0px"
	 viewBox="0 0 367.56 344.99" style="enable-background:new 0 0 367.56 344.99;" xml:space="preserve">
<style type="text/css">
	.st0{fill:#010101;}
	.st1{fill:#908F8F;}
	.st2{fill:#AAA9A9;}
	.st3{fill:#B0AFAF;}
</style>
<g>
	<path class="st0" d="M171.04,267.26c-3.16-1.91-6.75-0.72-10.11-1.26c-2.07-0.33-4.1-0.91-6.19-1.18
		c-3.47-0.45-6.99-0.71-10.39-1.47c-2.43-0.55-4.83-1.58-7.02-2.81c-1.47-0.82-2.9-1.04-4.48-1.3c-4.3-0.69-8.46-1.76-11.81-4.94
		c-1.97-1.88-4.67-2.67-7.2-3.63c-4.17-1.08-7.58-3.4-10.59-6.42c-1.07-1.07-1.22-2.47-1.74-3.75c-1.15-1.75-3.01-2.6-4.6-3.82
		c-2.59-2-5.21-4.08-6.77-7.18c-0.74-1.47-2.1-2.59-3.56-3.46c-1.23-0.61-2.02-1.71-2.98-2.62c-2.11-1.02-2.48-3.72-4.59-4.74
		c-0.24-3.21-1.04-6.19-3.27-8.66c-0.48-0.53-0.4-1.35-0.59-2.03c-0.17-0.6-0.03-1.25-0.33-1.82c-1.74-3.34-2.88-6.86-3.26-10.62
		c-0.97-2.05-1.12-4.11,0.07-6.13c0.8-1.37,0.7-2.75,0-4.06c-2-3.67-1.37-7.81-1.89-11.7c-0.28-2.14-0.39-4.46-0.94-6.5
		c-0.96-3.57,0.47-6.36,1.96-9.21c0.63-1.21,0.52-2.2,0.44-3.48c-0.2-3.41-1-6.78,0.59-10.29c1-2.22,0.52-5.22,2.21-7.26
		c2.47-2.98,1.58-7.15,4.04-10.1c4.33-5.19,5.94-11.94,9.83-17.4c0.25-0.35,0.51-0.75,0.86-0.99c2.15-1.41,3.38-3.29,4.2-5.82
		c0.76-2.36,3.43-3.54,5.42-4.86c2.76-1.84,4.04-4.81,6.4-6.93c2.43-2.19,4.67-4.36,7.87-5.44c1.43-0.48,2.63-1.68,3.93-2.55
		c0.44-0.45,0.82-0.89,0.66-1.62c-0.54-2.42,1.09-3.69,2.84-4.5c1.21-0.56,2.28-1.32,3.43-1.94c1.11-0.59,2.29-1.19,3.52-1.08
		c2.53,0.24,4.77-0.82,6.28-2.37c4.05-4.14,9.35-5.46,14.46-7.35c2.09-0.78,4.37-0.77,6.36-1.67c5.69-2.59,11.98-2.94,17.83-4.95
		c0.66-0.22,1.48-0.42,2.1-0.22c3.98,1.32,7.31-0.61,10.84-1.85c1.86-0.65,4.37-1.39,5.89-0.65c2.74,1.32,5.52,0.67,8.23,1.24
		c2.16,0.45,4.28-1.49,6.68-1.26c0.66,0.06,1.36-0.41,2,0.17c2.03,1.85,4.4,1.58,6.75,0.98c2.48-0.63,4.72-0.23,7.2,0.47
		c5.06,1.42,10.06,3.14,15.53,3.07c3.36-0.04,6.57,1.95,9.41,3.82c1.73,1.14,3.48,2.12,5.39,2.69c3.71,1.11,5.74,4.26,8.36,6.65
		c1.16,1.06,0.2,2.87,0.22,4.34c0.02,2.61-0.66,4.51-3.3,5.87c-2.09,1.07-3.66,2.56-6.4,2.63c-4.1,0.11-7.71-0.69-10.9-3.12
		c-2.89-2.2-6.35-1.77-9.58-2.39c-0.86-0.16-1.8-0.01-2.58-0.54c-1.92-1.32-3.78-1.22-5.97-0.4c-1.91,0.71-3.83-0.8-5.85-0.98
		c-1.49-0.13-3.04-0.27-4.46-0.49c-1.8-0.29-4.02,0.03-5.61-1.81c-0.7-0.81-1.98-1.63-3.56-1.38c-3.46,0.55-6.9,1.58-10.5,0.34
		c-1.02-0.35-2.35,0.46-3.32,1.37c-0.97,0.9-2.07,1.79-3.56,0.94c-1.8-0.24-3.74,0.02-5.06-1.75c-0.24-0.33-0.98-0.17-1.47,0.07
		c-3.87,0.7-7.72,1.65-11.59,2.11c-3.44,0.41-6.04,2.15-8.42,4.05c-2.06,1.64-4.06,3.2-6.57,3.62c-4.98,0.84-8.42,4.29-12.44,6.78
		c-2.74,1.25-3.86,4.56-6.87,5.47c-3.11,2.19-5.99,4.79-9.98,5.35c-0.69,0.1-0.89,0.62-1.13,1.26c-0.89,2.34-2.61,4.12-4.13,6.08
		c-2.15,2.78-3.72,6.01-5.47,9.09c-0.4,0.7-0.61,1.43-1.53,1.68c-4.36,1.2-7.31,3.49-7.41,8.56c-0.03,1.61-0.78,3.29-2.38,4.51
		c-1.3,0.99-1.74,2.6-1.96,4.42c-0.35,2.93,0.37,6.04-1.65,8.81c-0.79,1.08-1.04,2.96-0.86,4.59c0.1,0.84-0.09,1.97-0.68,2.18
		c-3,1.07-1.8,2.77-0.92,4.53c0.17,0.35,0.18,0.91,0.02,1.28c-1.61,3.9-0.8,7.99-1.02,12c-0.54,4.45-0.43,8.81,2.02,12.78
		c0.54,0.88,0.5,1.85,0.61,2.81c0.04,0.68,0.07,1.36,0.11,2.04c0.05,1.8,0.79,3.33,1.9,4.7c1.22,2.88,2.94,5.56,3.38,8.73
		c3.02,3.1,3.93,7.24,5.37,11.1c0.45,1.2,1.11,2.1,2.21,2.47c2.37,0.82,4.07,2.84,6.54,3.48c1.92,0.5,1.94,2.85,3.39,3.86
		c3.73,2.74,7.76,5.05,11.34,8l-0.01,0c2.07,0.46,3.95,1.21,5.72,2.5c1.77,1.29,4.27,0.93,6.13,2.21
		c7.51,3.65,15.31,5.84,23.79,4.89c1.74-0.19,3.51-0.1,5.28,0.36c2.59,0.67,5.08,0.45,7.71-0.65c2.84-1.19,6-0.43,8.82,0.69
		c2.87,1.14,5.29,0.52,7.36-1.39c1.16-1.07,2.27-1.47,3.77-1.48c3.85-0.02,7.57-2.05,11.53-0.81c0.61,0.19,1.41-0.12,1.65-0.66
		c1.55-3.58,5.41-3.33,8.15-4.85c1.78-0.99,3.95-1.28,5.38-2.97c0.79-0.7,1.67-1.25,2.64-1.66c2.6-1.45,5.06-3.38,7.84-4.23
		c3.66-1.11,5.42-3.74,6.9-6.72c0.98-1.96,2.07-3.61,4.14-4.48c1.99-0.83,2.06-2.87,2.91-4.47c1.09-2.07,2.74-3.84,4.13-5.76
		c2.93-4.06,3.63-9.12,6.01-13.44c0.46-0.84,0.48-2.19-0.11-3.11c-1.24-1.93-0.91-3.89-0.48-5.91c0.52-2.46,0.23-4.74-1.64-6.63
		c-0.63-0.64-1.34-1.4-0.89-2.34c1.7-3.54-0.08-6.12-2.35-8.49c-0.95-1-1.73-2.01-2.11-3.33c-0.96-3.33-4.28-4.78-6.06-7.55
		c-1.74-2.69-4.37-4.79-6.61-7.15c-0.61-0.64-1.2-1.36-2.17-1.43c-3.5-0.24-6.31-2.33-9.44-3.54c-3.72-1.43-7.4-2.92-11.53-2.19
		c-0.67,0.12-1.52,0.44-2.04-0.18c-1.16-1.39-2.83-1.3-4.17-1.09c-3.68,0.57-6.84-0.73-10.1-2.02c-2.28-0.9-4.64-1.6-6.53,0.85
		c-1.99,2.52-4.69,0.59-7.01,1.08c-0.79,0.17-1.7-0.4-2.53,0.13c-1.71,0.46-3.57,0.58-4.85,2.06c-2.01,0.89-3.71,2.12-4.81,4.09
		c-0.72,1.29-2.15,0.88-3.24,1.29c-2.7,1.28-5.36,2.65-8.11,3.82c-3.63,1.54-4.16,5.3-6.01,8.11c-0.37,0.56-0.31,1.42-1.14,1.65
		c-1.55,0.43-1.76,1.82-2.28,3.02c-1.78,4.05-1.96,8.54-3.49,12.64c-0.91,2.43-2.17,4.67-2.62,7.33c-0.39,2.26,0.02,4.19,0.8,6.15
		c0.9,2.29,0.03,3.95-2.78,5.03c-2,0.77-4.45-0.37-4.63-2.63c-0.35-4.42-2.24-8.32-3.53-12.43c-0.86-2.73-1.42-6.08-0.69-8.15
		c1.36-3.86,0.13-8.65,3.92-11.72c1-0.81,0.33-2.34,0.23-3.56c1.8-1.19,2.5-3.25,3.8-4.84c0.8-0.93,1.38-2.04,2.41-2.79
		c0.48-0.35,1.19-1.05,1.1-1.41c-0.8-3.05,1.7-4.27,3.33-5.77c1.17-1.07,1.63-2.5,2.69-3.59c5.73-5.89,12.31-10.6,19.36-14.82
		c4.91-2.93,10.4-4.07,15.66-5.57c3.35-0.95,7.12-1.77,11.06-1.27c3.06,0.39,6.43,0.08,9.65,0.06c3.12-0.02,6.24,0.68,9.01,1.91
		c3.67,1.64,7.56,2.08,11.26,1.84c4.09-0.26,7.1,1.47,10.25,3.26c2.64,1.5,4.47,4.21,7.46,5.25c2.09,0.73,3.33,2.66,4.67,4.11
		c2.79,3.03,7.12,4.92,7.88,9.66c0.09,0.58,0.7,1.08,1.36,1.17c2.59,0.36,3.11,3.93,6,3.87c0.18,0,0.48,0.72,0.56,1.13
		c0.43,2.23,1.69,3.97,2.83,5.88c1.22,2.06,1.79,4.67,2.33,7.05c0.92,3.99,2.42,7.75,3.76,11.57c0.56,1.6,0.45,3.14,0.51,4.72
		c0.19,5.15-1.14,10.26-0.27,15.45c0.19,1.11-0.47,2.4-0.87,3.57c-1.56,4.62-0.49,9.71-2.59,14.24c-0.96,2.06-1.54,4.26-2.91,6.17
		c-1.04,1.45-2.15,2.94-2.11,5c0.04,1.85-1.59,3.1-2.48,4.56c-1.62,2.65-2.7,5.72-5.38,7.66c-0.61,0.45-1.18,1.11-1.15,2.01
		c-0.4,1.43-0.58,2.99-2.14,3.77c-1.86,4.15-6.06,5.4-9.37,7.82c-3.6,2.64-8.2,3.61-11.35,6.41c-4.71,4.19-10.18,6.61-15.68,9.18
		c-0.68,0.32-1.59,0.33-2.36,0.24c-4.62-0.54-8.63,1.06-12.5,3.33c-0.6,0.35-1.35,0.82-1.95,0.73c-2.64-0.39-4.6,1.06-6.68,2.21
		c-4.35,0.71-8.75,0.15-13.13,0.41c-1.36,0.08-2.35,0.32-3.32,1.11c-1.17,0.95-2.38,1.44-3.9,0.68c-1.15-0.58-2.44-0.21-3.67-0.24
		C173.14,268.1,171.97,268.13,171.04,267.26z"/>
	<path class="st1" d="M123.49,74.77c-0.4,0.44-0.71,1.12-1.21,1.3c-3.01,1.05-5.33,2.55-4.9,6.28c0.02,0.13-0.54,0.33-0.83,0.49
		C115.87,77.57,119.74,76.22,123.49,74.77z"/>
	<path class="st2" d="M144.97,147.56c-0.78,1.99-1.75,3.85-3.8,4.84C142.4,150.76,143.32,148.87,144.97,147.56z"/>
	<path class="st3" d="M228.25,227.68c-0.86,0.59-1.43,1.63-2.64,1.66C226.12,228.2,226.97,227.6,228.25,227.68z"/>
</g>
<g>
	<path d="M65.62,298.36l-2.02,1.92c-1.45-1.43-3.04-2.51-4.77-3.25s-3.42-1.11-5.07-1.11c-2.04,0-3.98,0.5-5.83,1.51
		s-3.28,2.37-4.3,4.08s-1.53,3.34-1.53,4.89c0,1.97,0.53,3.83,1.58,5.6s2.51,3.15,4.37,4.15s3.89,1.5,6.09,1.5
		c2.67,0,4.94-0.76,6.79-2.27s2.96-3.47,3.31-5.87h-8.31v-2.51h11.21c-0.02,4.03-1.22,7.23-3.58,9.6s-5.53,3.55-9.52,3.55
		c-4.8,0-8.61-1.64-11.43-4.92c-2.17-2.53-3.25-5.46-3.25-8.77c0-2.47,0.62-4.68,1.85-6.61s2.94-3.5,5.11-4.71s4.62-1.81,7.35-1.81
		c2.2,0,4.28,0.4,6.22,1.2S63.76,296.6,65.62,298.36z"/>
	<path d="M91.72,293.38c3.94,0,7.23,1.32,9.89,3.96s3.98,5.88,3.98,9.74c0,3.81-1.32,6.94-3.97,9.39s-5.88,3.67-9.69,3.67
		c-3.87,0-7.13-1.32-9.79-3.96s-3.99-5.63-3.99-8.97c0-2.5,0.6-4.82,1.81-6.96s2.86-3.82,4.96-5.04S89.28,293.38,91.72,293.38z
		 M91.82,295.95c-1.92,0-3.75,0.5-5.48,1.5s-3.07,2.36-4.03,4.06s-1.44,3.6-1.44,5.69c0,3.09,1.07,5.6,3.21,7.52
		s4.72,2.88,7.74,2.88c2.02,0,3.88-0.49,5.61-1.48s3.06-2.32,4.03-4.02s1.44-3.37,1.44-5.04c0-2.06-0.48-3.93-1.44-5.61
		s-2.31-3.01-4.06-4.02S93.79,295.95,91.82,295.95z"/>
	<path d="M117.97,293.77h2.62v23.55h10.02v2.51h-12.64V293.77z"/>
	<path d="M141.91,319.84v-26.07h5.4c3.9,0,6.74,0.32,8.51,0.95c2.52,0.88,4.49,2.41,5.92,4.6s2.14,4.79,2.14,7.81
		c0,2.6-0.57,4.9-1.7,6.89s-2.6,3.46-4.39,4.4s-4.32,1.42-7.57,1.42H141.91z M144.4,317.36h3.01c3.6,0,6.1-0.22,7.51-0.67
		c1.96-0.63,3.5-1.78,4.62-3.44s1.69-3.69,1.69-6.09c0-2.52-0.61-4.67-1.82-6.45s-2.91-3-5.09-3.66c-1.64-0.5-4.33-0.76-8.07-0.76
		h-1.85V317.36z"/>
	<path d="M190.32,293.91h2.83l8.63,20.14l8.79-20.14h2.85l-11.36,26.07h-0.56L190.32,293.91z"/>
	<path d="M230.97,293.77l12.15,26.07h-2.78l-4.1-8.6H225l-4.06,8.6h-2.92l12.32-26.07H230.97z M230.66,299.29l-4.5,9.46h8.93
		L230.66,299.29z"/>
	<path d="M254.36,319.91v-26.07h0.56l17.33,19.95v-19.95h2.57v26.07h-0.6l-17.16-19.71v19.71H254.36z"/>
	<path d="M313.49,298.36l-2.02,1.92c-1.45-1.43-3.04-2.51-4.77-3.25c-1.73-0.74-3.42-1.11-5.07-1.11c-2.04,0-3.98,0.5-5.83,1.51
		s-3.28,2.37-4.3,4.08s-1.53,3.34-1.53,4.89c0,1.97,0.53,3.83,1.58,5.6s2.51,3.15,4.37,4.15s3.89,1.5,6.09,1.5
		c2.67,0,4.94-0.76,6.79-2.27c1.86-1.51,2.96-3.47,3.31-5.87h-8.31v-2.51h11.22c-0.02,4.03-1.22,7.23-3.58,9.6s-5.53,3.55-9.52,3.55
		c-4.81,0-8.61-1.64-11.43-4.92c-2.17-2.53-3.25-5.46-3.25-8.77c0-2.47,0.62-4.68,1.85-6.61s2.94-3.5,5.11-4.71s4.62-1.81,7.35-1.81
		c2.2,0,4.28,0.4,6.22,1.2C309.72,295.32,311.63,296.6,313.49,298.36z"/>
</g>
</svg>
