<?xml version="1.0" encoding="utf-8"?>
<!-- Generator: Adobe Illustrator 25.0.0, SVG Export Plug-In . SVG Version: 6.00 Build 0)  -->
<svg version="1.1" id="Layer_1" xmlns="http://www.w3.org/2000/svg" xmlns:xlink="http://www.w3.org/1999/xlink" x="0px" y="0px"
	 viewBox="0 0 191.77 180" style="enable-background:new 0 0 191.77 180;" xml:space="preserve">
<style type="text/css">
	.st0{fill:#010101;}
	.st1{fill:#908F8F;}
	.st2{fill:#AAA9A9;}
	.st3{fill:#B0AFAF;}
</style>
<g>
	<g>
		<path class="st0" d="M94.66,133.36c-1.71-1.03-3.65-0.39-5.48-0.68c-1.12-0.18-2.22-0.49-3.35-0.64c-1.88-0.25-3.78-0.38-5.63-0.8
			c-1.32-0.3-2.62-0.86-3.8-1.52c-0.8-0.45-1.57-0.56-2.43-0.7c-2.33-0.38-4.58-0.95-6.4-2.68c-1.07-1.02-2.53-1.45-3.9-1.97
			c-2.26-0.58-4.1-1.84-5.73-3.48c-0.58-0.58-0.66-1.34-0.94-2.03c-0.62-0.95-1.63-1.41-2.49-2.07c-1.41-1.08-2.82-2.21-3.67-3.89
			c-0.4-0.8-1.14-1.4-1.93-1.88c-0.66-0.33-1.09-0.93-1.61-1.42c-1.14-0.55-1.34-2.02-2.49-2.57c-0.13-1.74-0.56-3.35-1.77-4.69
			c-0.26-0.29-0.22-0.73-0.32-1.1c-0.09-0.33-0.02-0.68-0.18-0.99c-0.94-1.81-1.56-3.72-1.76-5.75c-0.53-1.11-0.61-2.23,0.04-3.32
			c0.44-0.74,0.38-1.49,0-2.2c-1.08-1.99-0.74-4.23-1.02-6.34c-0.15-1.16-0.21-2.42-0.51-3.52c-0.52-1.93,0.25-3.45,1.06-4.99
			c0.34-0.65,0.28-1.19,0.24-1.88c-0.11-1.85-0.54-3.67,0.32-5.57c0.54-1.2,0.28-2.83,1.2-3.93c1.34-1.61,0.86-3.88,2.19-5.47
			c2.35-2.81,3.22-6.47,5.33-9.42c0.14-0.19,0.28-0.41,0.47-0.53c1.17-0.77,1.83-1.78,2.27-3.16c0.41-1.28,1.86-1.92,2.93-2.63
			c1.49-1,2.19-2.6,3.47-3.76c1.31-1.18,2.53-2.36,4.26-2.95c0.78-0.26,1.42-0.91,2.13-1.38c0.24-0.24,0.44-0.48,0.36-0.88
			c-0.29-1.31,0.59-2,1.54-2.44c0.66-0.31,1.23-0.71,1.86-1.05c0.6-0.32,1.24-0.65,1.91-0.58c1.37,0.13,2.58-0.45,3.4-1.28
			c2.2-2.24,5.06-2.96,7.83-3.98c1.13-0.42,2.37-0.41,3.45-0.91c3.08-1.4,6.49-1.59,9.66-2.68c0.36-0.12,0.8-0.23,1.14-0.12
			c2.16,0.71,3.96-0.33,5.87-1c1.01-0.35,2.36-0.75,3.19-0.35c1.48,0.72,2.99,0.37,4.46,0.67c1.17,0.24,2.32-0.81,3.62-0.68
			c0.36,0.03,0.74-0.22,1.08,0.09c1.1,1,2.38,0.85,3.66,0.53c1.34-0.34,2.56-0.12,3.9,0.25c2.74,0.77,5.45,1.7,8.41,1.66
			c1.82-0.02,3.56,1.06,5.1,2.07c0.94,0.62,1.88,1.15,2.92,1.46c2.01,0.6,3.11,2.31,4.53,3.6c0.63,0.57,0.11,1.56,0.12,2.35
			c0.01,1.41-0.36,2.45-1.79,3.18c-1.13,0.58-1.98,1.39-3.46,1.43c-2.22,0.06-4.17-0.37-5.9-1.69c-1.57-1.19-3.44-0.96-5.19-1.29
			c-0.47-0.09-0.98,0-1.4-0.29c-1.04-0.71-2.05-0.66-3.24-0.22c-1.03,0.39-2.08-0.43-3.17-0.53c-0.81-0.07-1.65-0.14-2.41-0.27
			c-0.98-0.16-2.18,0.02-3.04-0.98c-0.38-0.44-1.07-0.88-1.93-0.75c-1.88,0.3-3.74,0.86-5.69,0.18c-0.55-0.19-1.27,0.25-1.8,0.74
			c-0.53,0.49-1.12,0.97-1.93,0.51c-0.97-0.13-2.03,0.01-2.74-0.95c-0.13-0.18-0.53-0.09-0.8,0.04c-2.1,0.38-4.18,0.89-6.28,1.15
			c-1.86,0.22-3.27,1.17-4.56,2.19c-1.11,0.89-2.2,1.73-3.56,1.96c-2.7,0.45-4.56,2.33-6.74,3.68c-1.49,0.68-2.09,2.47-3.72,2.96
			c-1.68,1.19-3.24,2.6-5.41,2.9c-0.38,0.05-0.48,0.33-0.61,0.68c-0.48,1.27-1.42,2.23-2.24,3.29c-1.17,1.5-2.02,3.26-2.97,4.93
			c-0.22,0.38-0.33,0.77-0.83,0.91c-2.36,0.65-3.96,1.89-4.01,4.64c-0.02,0.87-0.42,1.78-1.29,2.44c-0.71,0.53-0.94,1.41-1.06,2.4
			c-0.19,1.58,0.2,3.27-0.89,4.77c-0.43,0.59-0.57,1.6-0.46,2.49c0.05,0.45-0.05,1.07-0.37,1.18c-1.62,0.58-0.97,1.5-0.5,2.46
			c0.09,0.19,0.1,0.49,0.01,0.69c-0.87,2.11-0.43,4.33-0.55,6.5c-0.29,2.41-0.24,4.77,1.09,6.92c0.29,0.48,0.27,1,0.33,1.52
			c0.02,0.37,0.04,0.74,0.06,1.1c0.03,0.98,0.43,1.8,1.03,2.55c0.66,1.56,1.59,3.01,1.83,4.73c1.64,1.68,2.13,3.92,2.91,6.01
			c0.24,0.65,0.6,1.14,1.2,1.34c1.29,0.44,2.2,1.54,3.54,1.89c1.04,0.27,1.05,1.55,1.84,2.09c2.02,1.48,4.2,2.74,6.14,4.34l0,0
			c1.12,0.25,2.14,0.66,3.1,1.35c0.96,0.7,2.31,0.5,3.32,1.2c4.07,1.98,8.29,3.16,12.89,2.65c0.94-0.1,1.9-0.05,2.86,0.19
			c1.4,0.36,2.75,0.25,4.18-0.35c1.54-0.64,3.25-0.23,4.78,0.37c1.56,0.62,2.87,0.28,3.99-0.75c0.63-0.58,1.23-0.8,2.04-0.8
			c2.09-0.01,4.1-1.11,6.25-0.44c0.33,0.1,0.76-0.06,0.89-0.36c0.84-1.94,2.93-1.8,4.41-2.63c0.96-0.54,2.14-0.69,2.91-1.61
			c0.43-0.38,0.91-0.68,1.43-0.9c1.41-0.78,2.74-1.83,4.25-2.29c1.98-0.6,2.94-2.03,3.74-3.64c0.53-1.06,1.12-1.96,2.24-2.43
			c1.08-0.45,1.12-1.55,1.57-2.42c0.59-1.12,1.49-2.08,2.24-3.12c1.59-2.2,1.96-4.94,3.26-7.28c0.25-0.45,0.26-1.19-0.06-1.68
			c-0.67-1.05-0.49-2.11-0.26-3.2c0.28-1.33,0.13-2.57-0.89-3.59c-0.34-0.35-0.73-0.76-0.48-1.27c0.92-1.92-0.04-3.32-1.27-4.6
			c-0.52-0.54-0.94-1.09-1.14-1.8c-0.52-1.81-2.32-2.59-3.28-4.09c-0.94-1.46-2.37-2.6-3.58-3.87c-0.33-0.35-0.65-0.74-1.18-0.77
			c-1.9-0.13-3.42-1.26-5.12-1.92c-2.01-0.78-4.01-1.58-6.24-1.18c-0.37,0.06-0.83,0.24-1.1-0.1c-0.63-0.76-1.53-0.7-2.26-0.59
			c-1.99,0.31-3.71-0.4-5.47-1.1c-1.23-0.49-2.51-0.87-3.54,0.46c-1.08,1.36-2.54,0.32-3.8,0.58c-0.43,0.09-0.92-0.21-1.37,0.07
			c-0.93,0.25-1.94,0.31-2.63,1.12c-1.09,0.48-2.01,1.15-2.61,2.22c-0.39,0.7-1.16,0.47-1.75,0.7c-1.46,0.69-2.9,1.44-4.39,2.07
			c-1.97,0.83-2.25,2.87-3.26,4.39c-0.2,0.3-0.17,0.77-0.62,0.9c-0.84,0.23-0.95,0.99-1.24,1.64c-0.96,2.19-1.06,4.62-1.89,6.85
			c-0.49,1.32-1.17,2.53-1.42,3.97c-0.21,1.22,0.01,2.27,0.43,3.33c0.49,1.24,0.02,2.14-1.51,2.73c-1.08,0.42-2.41-0.2-2.51-1.43
			c-0.19-2.39-1.22-4.51-1.91-6.73c-0.46-1.48-0.77-3.3-0.37-4.42c0.74-2.09,0.07-4.69,2.12-6.35c0.54-0.44,0.18-1.27,0.12-1.93
			c0.98-0.65,1.36-1.76,2.06-2.62c0.43-0.51,0.75-1.1,1.31-1.51c0.26-0.19,0.64-0.57,0.59-0.76c-0.43-1.65,0.92-2.32,1.8-3.13
			c0.63-0.58,0.88-1.36,1.46-1.94c3.11-3.19,6.67-5.74,10.49-8.03c2.66-1.59,5.63-2.21,8.49-3.02c1.81-0.52,3.86-0.96,5.99-0.69
			c1.66,0.21,3.48,0.04,5.23,0.03c1.69-0.01,3.38,0.37,4.88,1.03c1.99,0.89,4.1,1.13,6.1,1c2.22-0.14,3.85,0.79,5.55,1.76
			c1.43,0.81,2.42,2.28,4.04,2.84c1.13,0.39,1.81,1.44,2.53,2.22c1.51,1.64,3.86,2.67,4.27,5.23c0.05,0.31,0.38,0.58,0.73,0.63
			c1.4,0.2,1.68,2.13,3.25,2.09c0.1,0,0.26,0.39,0.3,0.61c0.23,1.21,0.92,2.15,1.53,3.19c0.66,1.12,0.97,2.53,1.26,3.82
			c0.5,2.16,1.31,4.2,2.04,6.27c0.3,0.86,0.24,1.7,0.27,2.56c0.1,2.79-0.62,5.56-0.15,8.37c0.1,0.6-0.26,1.3-0.47,1.93
			c-0.85,2.5-0.26,5.26-1.4,7.72c-0.52,1.12-0.83,2.31-1.58,3.34c-0.56,0.79-1.17,1.59-1.14,2.71c0.02,1-0.86,1.68-1.34,2.47
			c-0.88,1.43-1.46,3.1-2.91,4.15c-0.33,0.24-0.64,0.6-0.62,1.09c-0.22,0.77-0.31,1.62-1.16,2.04c-1.01,2.25-3.28,2.92-5.08,4.24
			c-1.95,1.43-4.44,1.96-6.15,3.47c-2.55,2.27-5.52,3.58-8.5,4.98c-0.37,0.17-0.86,0.18-1.28,0.13c-2.5-0.29-4.68,0.58-6.77,1.8
			c-0.33,0.19-0.73,0.45-1.06,0.4c-1.43-0.21-2.49,0.57-3.62,1.2c-2.36,0.39-4.74,0.08-7.11,0.22c-0.73,0.04-1.27,0.17-1.8,0.6
			c-0.63,0.51-1.29,0.78-2.11,0.37c-0.63-0.31-1.32-0.12-1.99-0.13C95.79,133.81,95.16,133.82,94.66,133.36z"/>
		<path class="st1" d="M68.9,29.08c-0.22,0.24-0.39,0.61-0.65,0.7c-1.63,0.57-2.89,1.38-2.65,3.4c0.01,0.07-0.29,0.18-0.45,0.27
			C64.77,30.6,66.87,29.86,68.9,29.08z"/>
		<path class="st2" d="M80.53,68.51c-0.42,1.08-0.95,2.08-2.06,2.62C79.14,70.25,79.64,69.22,80.53,68.51z"/>
		<path class="st3" d="M125.65,111.91c-0.47,0.32-0.78,0.88-1.43,0.9C124.5,112.19,124.96,111.87,125.65,111.91z"/>
	</g>
	<g>
		<path d="M35.44,150.2l-1.1,1.04c-0.79-0.77-1.65-1.36-2.59-1.76c-0.94-0.4-1.85-0.6-2.75-0.6c-1.1,0-2.16,0.27-3.16,0.82
			c-1,0.55-1.78,1.28-2.33,2.21c-0.55,0.93-0.83,1.81-0.83,2.65c0,1.07,0.29,2.08,0.86,3.03c0.57,0.96,1.36,1.7,2.37,2.25
			c1.01,0.54,2.11,0.81,3.3,0.81c1.45,0,2.67-0.41,3.68-1.23c1.01-0.82,1.6-1.88,1.79-3.18h-4.5v-1.36h6.08
			c-0.01,2.18-0.66,3.92-1.94,5.2c-1.28,1.28-3,1.92-5.16,1.92c-2.6,0-4.67-0.89-6.19-2.67c-1.17-1.37-1.76-2.96-1.76-4.75
			c0-1.34,0.33-2.53,1-3.58c0.67-1.05,1.59-1.9,2.77-2.55c1.17-0.65,2.5-0.98,3.98-0.98c1.19,0,2.32,0.22,3.37,0.65
			S34.43,149.25,35.44,150.2z"/>
		<path d="M49.58,147.51c2.13,0,3.92,0.71,5.36,2.14s2.16,3.19,2.16,5.28c0,2.06-0.72,3.76-2.15,5.09
			c-1.43,1.33-3.18,1.99-5.25,1.99c-2.09,0-3.86-0.72-5.3-2.15s-2.16-3.05-2.16-4.86c0-1.35,0.33-2.61,0.98-3.77
			c0.65-1.16,1.55-2.07,2.69-2.73C47.03,147.84,48.26,147.51,49.58,147.51z M49.64,148.9c-1.04,0-2.03,0.27-2.97,0.81
			c-0.94,0.54-1.66,1.28-2.19,2.2c-0.52,0.92-0.78,1.95-0.78,3.08c0,1.68,0.58,3.03,1.74,4.08c1.16,1.04,2.56,1.56,4.19,1.56
			c1.09,0,2.1-0.27,3.04-0.8c0.93-0.53,1.66-1.26,2.18-2.18c0.52-0.92,0.78-1.83,0.78-2.73c0-1.12-0.26-2.13-0.78-3.04
			c-0.52-0.91-1.25-1.63-2.2-2.18C51.71,149.17,50.7,148.9,49.64,148.9z"/>
		<path d="M63.8,147.72h1.42v12.76h5.43v1.36H63.8V147.72z"/>
		<path d="M76.77,161.84v-14.12h2.92c2.11,0,3.65,0.17,4.61,0.51c1.36,0.48,2.43,1.31,3.2,2.49c0.77,1.18,1.16,2.59,1.16,4.23
			c0,1.41-0.31,2.65-0.92,3.73c-0.61,1.08-1.41,1.87-2.38,2.39c-0.97,0.51-2.34,0.77-4.1,0.77H76.77z M78.12,160.5h1.63
			c1.95,0,3.3-0.12,4.07-0.36c1.06-0.34,1.89-0.96,2.5-1.86c0.61-0.9,0.91-2,0.91-3.3c0-1.36-0.33-2.53-0.99-3.49
			c-0.66-0.96-1.58-1.63-2.76-1.98c-0.89-0.27-2.35-0.41-4.37-0.41h-1V160.5z"/>
		<path d="M103,147.79h1.53l4.68,10.91l4.76-10.91h1.54l-6.15,14.12h-0.3L103,147.79z"/>
		<path d="M125.02,147.72l6.58,14.12h-1.5l-2.22-4.66h-6.09l-2.2,4.66H118l6.68-14.12H125.02z M124.85,150.71l-2.44,5.12h4.84
			L124.85,150.71z"/>
		<path d="M137.69,161.88v-14.12h0.3l9.39,10.81v-10.81h1.39v14.12h-0.32l-9.29-10.67v10.67H137.69z"/>
		<path d="M169.72,150.2l-1.1,1.04c-0.79-0.77-1.65-1.36-2.59-1.76c-0.94-0.4-1.85-0.6-2.75-0.6c-1.1,0-2.16,0.27-3.16,0.82
			c-1,0.55-1.78,1.28-2.33,2.21c-0.55,0.93-0.83,1.81-0.83,2.65c0,1.07,0.29,2.08,0.86,3.03c0.57,0.96,1.36,1.7,2.37,2.25
			c1.01,0.54,2.11,0.81,3.3,0.81c1.45,0,2.67-0.41,3.68-1.23c1.01-0.82,1.61-1.88,1.8-3.18h-4.5v-1.36h6.08
			c-0.01,2.18-0.66,3.92-1.94,5.2c-1.28,1.28-3,1.92-5.16,1.92c-2.6,0-4.67-0.89-6.19-2.67c-1.17-1.37-1.76-2.96-1.76-4.75
			c0-1.34,0.33-2.53,1-3.58c0.67-1.05,1.59-1.9,2.77-2.55c1.17-0.65,2.5-0.98,3.98-0.98c1.19,0,2.32,0.22,3.37,0.65
			C167.68,148.56,168.71,149.25,169.72,150.2z"/>
	</g>
</g>
</svg>
